<svg width="18" height="18" viewBox="0 0 18 18" fill="none" xmlns="http://www.w3.org/2000/svg">
<path d="M1.5 8.25H16.5V12C16.5 13.2426 15.4926 14.25 14.25 14.25H3.75C2.50736 14.25 1.5 13.2426 1.5 12V8.25Z" stroke="#292D32" stroke-width="1.125"/>
<path d="M3 14.25H5.25V14.625C5.25 15.2463 4.74632 15.75 4.125 15.75V15.75C3.50368 15.75 3 15.2463 3 14.625V14.25Z" stroke="#292D32" stroke-width="1.125"/>
<path d="M12.75 14.25H15V14.625C15 15.2463 14.4963 15.75 13.875 15.75V15.75C13.2537 15.75 12.75 15.2463 12.75 14.625V14.25Z" stroke="#292D32" stroke-width="1.125"/>
<path d="M3 8.25V4.5C3 3.25736 4.00736 2.25 5.25 2.25V2.25C6.49264 2.25 7.5 3.25736 7.5 4.5V5.25" stroke="#292D32" stroke-width="1.125" stroke-linecap="round"/>
</svg>
