<svg width="18" height="18" viewBox="0 0 18 18" fill="none" xmlns="http://www.w3.org/2000/svg">
<path d="M3.75 11.25L14.25 11.25" stroke="#292D32" stroke-width="1.125" stroke-miterlimit="10" stroke-linecap="round" stroke-linejoin="round"/>
<rect x="1.5" y="8.25" width="15" height="6" rx="2.25" stroke="#292D32" stroke-width="1.125"/>
<path d="M3 4.5C3 3.25736 4.00736 2.25 5.25 2.25H12.75C13.9926 2.25 15 3.25736 15 4.5V8.25H3V4.5Z" stroke="#292D32" stroke-width="1.125"/>
<path d="M3 14.25H5.25V14.625C5.25 15.2463 4.74632 15.75 4.125 15.75V15.75C3.50368 15.75 3 15.2463 3 14.625V14.25Z" stroke="#292D32" stroke-width="1.125"/>
<path d="M12.75 14.25H15V14.625C15 15.2463 14.4963 15.75 13.875 15.75V15.75C13.2537 15.75 12.75 15.2463 12.75 14.625V14.25Z" stroke="#292D32" stroke-width="1.125"/>
<rect x="4.5" y="6" width="4.5" height="2.25" rx="1.125" stroke="#292D32" stroke-width="1.125"/>
<rect x="9" y="6" width="4.5" height="2.25" rx="1.125" stroke="#292D32" stroke-width="1.125"/>
</svg>
