<svg width="40" height="40" viewBox="0 0 40 40" fill="none" xmlns="http://www.w3.org/2000/svg">
<path d="M21.6667 37.9166H8.33337C4.30004 37.9166 2.08337 35.7 2.08337 31.6666V18.3333C2.08337 14.3 4.30004 12.0833 8.33337 12.0833H16.6667C17.35 12.0833 17.9167 12.65 17.9167 13.3333V31.6666C17.9167 34.3 19.0334 35.4166 21.6667 35.4166C22.35 35.4166 22.9167 35.9833 22.9167 36.6666C22.9167 37.35 22.35 37.9166 21.6667 37.9166ZM8.33337 14.5833C5.70004 14.5833 4.58337 15.7 4.58337 18.3333V31.6666C4.58337 34.3 5.70004 35.4166 8.33337 35.4166H16.3334C15.7334 34.4333 15.4167 33.1833 15.4167 31.6666V14.5833H8.33337Z" fill="#292D32"/>
<path d="M16.6667 14.5834H8.33337C7.65004 14.5834 7.08337 14.0167 7.08337 13.3334V10C7.08337 7.46669 9.13337 5.41669 11.6667 5.41669H16.85C17.2333 5.41669 17.6001 5.59998 17.8334 5.89998C18.0667 6.21665 18.15 6.61669 18.05 6.98336C17.95 7.35002 17.9167 7.76669 17.9167 8.33335V13.3334C17.9167 14.0167 17.35 14.5834 16.6667 14.5834ZM9.58337 12.0834H15.4167V8.33335C15.4167 8.18335 15.4167 8.05002 15.4167 7.91669H11.6667C10.5167 7.91669 9.58337 8.85002 9.58337 10V12.0834Z" fill="#292D32"/>
<path d="M23.3334 22.9166C22.65 22.9166 22.0834 22.35 22.0834 21.6666V13.3333C22.0834 12.65 22.65 12.0833 23.3334 12.0833C24.0167 12.0833 24.5834 12.65 24.5834 13.3333V21.6666C24.5834 22.35 24.0167 22.9166 23.3334 22.9166Z" fill="#292D32"/>
<path d="M30 22.9166C29.3167 22.9166 28.75 22.35 28.75 21.6666V13.3333C28.75 12.65 29.3167 12.0833 30 12.0833C30.6833 12.0833 31.25 12.65 31.25 13.3333V21.6666C31.25 22.35 30.6833 22.9166 30 22.9166Z" fill="#292D32"/>
<path d="M30 37.9166H23.3334C22.65 37.9166 22.0834 37.35 22.0834 36.6666V30C22.0834 28.4 23.4 27.0833 25 27.0833H28.3334C29.9334 27.0833 31.25 28.4 31.25 30V36.6666C31.25 37.35 30.6834 37.9166 30 37.9166ZM24.5834 35.4166H28.75V30C28.75 29.7666 28.5667 29.5833 28.3334 29.5833H25C24.7667 29.5833 24.5834 29.7666 24.5834 30V35.4166Z" fill="#292D32"/>
<path d="M10 29.5834C9.31667 29.5834 8.75 29.0167 8.75 28.3334V21.6667C8.75 20.9834 9.31667 20.4167 10 20.4167C10.6833 20.4167 11.25 20.9834 11.25 21.6667V28.3334C11.25 29.0167 10.6833 29.5834 10 29.5834Z" fill="#292D32"/>
<path d="M31.6666 37.9166H21.6666C17.6333 37.9166 15.4166 35.7 15.4166 31.6666V8.33331C15.4166 4.29998 17.6333 2.08331 21.6666 2.08331H31.6666C35.7 2.08331 37.9166 4.29998 37.9166 8.33331V31.6666C37.9166 35.7 35.7 37.9166 31.6666 37.9166ZM21.6666 4.58331C19.0333 4.58331 17.9166 5.69998 17.9166 8.33331V31.6666C17.9166 34.3 19.0333 35.4166 21.6666 35.4166H31.6666C34.3 35.4166 35.4166 34.3 35.4166 31.6666V8.33331C35.4166 5.69998 34.3 4.58331 31.6666 4.58331H21.6666Z" fill="#292D32"/>
</svg>
