<svg width="168" height="53" viewBox="0 0 168 53" fill="none" xmlns="http://www.w3.org/2000/svg">
<path d="M61.8997 48.5834C66.0449 48.5834 68.5583 46.8019 69.9014 44.2086C69.927 44.1592 69.9778 44.1278 70.0334 44.1278C70.1148 44.1278 70.1807 44.1937 70.1807 44.2751V46.1283C70.1807 47.2331 71.0764 48.1288 72.1812 48.1288H74.5877C75.8073 48.1288 76.796 47.1401 76.796 45.9204V27.4678C76.796 26.2482 75.8073 25.2595 74.5877 25.2595H71.9131C70.6935 25.2595 69.7048 26.2482 69.7048 27.4679V38.2172C69.7048 41.6726 68.2295 42.7183 64.8028 42.7183C61.2334 42.7183 60.0912 41.5817 60.0912 38.3991V27.4679C60.0912 26.2482 59.1025 25.2595 57.8829 25.2595H55.2083C53.9887 25.2595 53 26.2482 53 27.4679V39.7631C53 44.6279 55.6176 48.5834 61.8997 48.5834Z" fill="#1E1E1E"/>
<path d="M85.571 48.1288C86.7906 48.1288 87.7793 47.1401 87.7793 45.9204V35.171C87.7793 31.7156 89.2547 30.6699 92.6813 30.6699C96.2983 30.6699 97.3929 31.8066 97.3929 34.9892V45.9204C97.3929 47.1401 98.3816 48.1288 99.6012 48.1288H102.323C103.543 48.1288 104.532 47.1401 104.532 45.9204V33.6252C104.532 28.7604 101.867 24.8049 95.632 24.8049C91.4967 24.8049 88.939 26.6222 87.6381 29.1628C87.6076 29.2224 87.5466 29.2605 87.4796 29.2605C87.3823 29.2605 87.3034 29.1816 87.3034 29.0843V27.26C87.3034 26.1552 86.4077 25.2595 85.3029 25.2595H82.8964C81.6768 25.2595 80.6881 26.2482 80.6881 27.4679V45.9204C80.6881 47.1401 81.6768 48.1288 82.8964 48.1288H85.571Z" fill="#1E1E1E"/>
<path d="M112.736 22.668C113.955 22.668 114.944 21.6793 114.944 20.4596V19.8751C114.944 18.6555 113.955 17.6667 112.736 17.6667H110.103C108.867 17.6667 107.872 18.6813 107.895 19.9171L107.907 20.5017C107.929 21.7047 108.911 22.668 110.115 22.668H112.736ZM112.878 48.1288C114.098 48.1288 115.087 47.1401 115.087 45.9204V27.4678C115.087 26.2482 114.098 25.2595 112.878 25.2595H110.156C108.937 25.2595 107.948 26.2482 107.948 27.4679V45.9204C107.948 47.1401 108.937 48.1288 110.156 48.1288H112.878Z" fill="#1E1E1E"/>
<path d="M125.198 48.5834C129.559 48.5834 131.979 46.7737 133.278 45.1114C133.315 45.0645 133.371 45.0371 133.43 45.0371C133.536 45.0371 133.621 45.1226 133.621 45.2282V46.5829C133.621 47.4367 134.314 48.1288 135.167 48.1288H138.028C139.248 48.1288 140.237 47.1401 140.237 45.9204V34.58C140.237 28.4876 136.525 24.8049 129.481 24.8049C122.723 24.8049 118.297 28.3967 118.297 33.8525C118.297 34.1287 118.521 34.3527 118.797 34.3527H124.602C124.879 34.3527 125.102 34.1287 125.102 33.8525C125.102 31.5338 126.245 30.7609 129.148 30.7609C131.956 30.7609 133.479 31.261 133.479 33.9435C133.479 34.361 133.172 34.7152 132.759 34.7749L125.293 35.853C120.343 36.5805 117.678 38.7628 117.678 42.3091C117.678 46.4465 120.962 48.5834 125.198 48.5834ZM124.484 41.7636C124.484 40.8088 125.15 40.3541 126.625 40.1268L130.951 39.4954C132.284 39.3009 133.577 40.4473 132.801 41.5473C131.752 43.0329 129.64 43.4003 127.577 43.4003C125.483 43.4003 124.484 42.9911 124.484 41.7636Z" fill="#1E1E1E"/>
<path d="M148.873 48.1288C150.092 48.1288 151.081 47.1401 151.081 45.9204V35.171C151.081 31.7156 152.556 30.6699 155.983 30.6699C159.6 30.6699 160.695 31.8066 160.695 34.9892V45.9204C160.695 47.1401 161.683 48.1288 162.903 48.1288H165.625C166.845 48.1288 167.833 47.1401 167.833 45.9204V33.6252C167.833 28.7604 165.168 24.8049 158.934 24.8049C154.798 24.8049 152.241 26.6222 150.94 29.1628C150.909 29.2224 150.848 29.2605 150.781 29.2605C150.684 29.2605 150.605 29.1816 150.605 29.0843V27.26C150.605 26.1552 149.709 25.2595 148.605 25.2595H146.198C144.978 25.2595 143.99 26.2482 143.99 27.4679V45.9204C143.99 47.1401 144.978 48.1288 146.198 48.1288H148.873Z" fill="#1E1E1E"/>
<path d="M23.74 10.2463L13.9571 5.41005C8.67916 2.8263 4.35083 5.45422 4.35083 11.24V44.0117C4.35083 46.5292 6.44875 48.583 9.01041 48.583H25.3962C26.6108 48.583 27.6046 47.5892 27.6046 46.3746V16.3634C27.6046 14.0446 25.86 11.2842 23.74 10.2463ZM19.8092 30.3642H12.1462C11.2408 30.3642 10.49 29.6134 10.49 28.708C10.49 27.8025 11.2408 27.0517 12.1462 27.0517H19.8092C20.7146 27.0517 21.4654 27.8025 21.4654 28.708C21.4654 29.6134 20.7367 30.3642 19.8092 30.3642ZM19.8092 21.5309H12.1462C11.2408 21.5309 10.49 20.78 10.49 19.8746C10.49 18.9692 11.2408 18.2184 12.1462 18.2184H19.8092C20.7146 18.2184 21.4654 18.9692 21.4654 19.8746C21.4654 20.78 20.7367 21.5309 19.8092 21.5309Z" fill="#006BE8"/>
<path fill-rule="evenodd" clip-rule="evenodd" d="M37.5666 33.1274C37.5647 33.068 37.5637 33.0083 37.5637 32.9484C37.5637 33.0084 37.5627 33.0682 37.5608 33.1277C37.5618 33.1269 37.5628 33.1261 37.5639 33.1252C37.5648 33.126 37.5657 33.1267 37.5666 33.1274ZM48.5794 33.1285C48.5773 33.0979 48.5748 33.0673 48.5723 33.0367C48.5667 32.9705 48.5612 32.9042 48.5612 32.838C48.4066 30.6738 47.7441 29.1942 46.7283 28.1784C46.5295 27.9797 46.3087 27.803 46.0879 27.6484C46.0879 27.6484 46.0658 27.6484 46.0658 27.6263C45.2045 27.0742 44.2108 26.6988 43.1287 26.478L38.6237 25.4622L37.5637 25.2192L33.6108 24.3359C32.2195 24.0267 30.9166 25.0867 30.9166 26.5001V38.3588C30.9167 38.3588 30.9168 38.3589 30.9169 38.3589L30.9173 46.4413C30.9173 47.6338 31.8669 48.5834 33.0594 48.5834H43.0631C46.1106 48.5834 48.584 46.1101 48.584 43.0626L48.5835 33.1252C48.5821 33.1263 48.5807 33.1274 48.5794 33.1285Z" fill="#FF8A00"/>
</svg>
