<svg width="102" height="32" viewBox="0 0 102 32" fill="none" xmlns="http://www.w3.org/2000/svg">
<path d="M37.3734 29.3334C39.8762 29.3334 41.3937 28.2578 42.2046 26.692C42.2201 26.6622 42.2508 26.6432 42.2843 26.6432C42.3334 26.6432 42.3733 26.683 42.3733 26.7322V27.8511C42.3733 28.5181 42.914 29.0589 43.5811 29.0589H45.0341C45.7705 29.0589 46.3674 28.462 46.3674 27.7256V16.5844C46.3674 15.848 45.7705 15.2511 45.0341 15.2511H43.4193C42.6829 15.2511 42.0859 15.848 42.0859 16.5844V23.0746C42.0859 25.1609 41.1951 25.7922 39.1262 25.7922C36.9711 25.7922 36.2815 25.106 36.2815 23.1844V16.5844C36.2815 15.848 35.6845 15.2511 34.9482 15.2511H33.3333C32.597 15.2511 32 15.848 32 16.5844V24.0079C32 26.9452 33.5804 29.3334 37.3734 29.3334Z" fill="white"/>
<path d="M51.6655 29.0589C52.4019 29.0589 52.9988 28.462 52.9988 27.7256V21.2354C52.9988 19.1491 53.8896 18.5177 55.9585 18.5177C58.1424 18.5177 58.8033 19.204 58.8033 21.1256V27.7256C58.8033 28.4619 59.4002 29.0589 60.1366 29.0589H61.7801C62.5165 29.0589 63.1135 28.462 63.1135 27.7256V20.302C63.1135 17.3648 61.5043 14.9766 57.7401 14.9766C55.2433 14.9766 53.699 16.0738 52.9136 17.6078C52.8952 17.6438 52.8583 17.6667 52.8179 17.6667C52.7591 17.6667 52.7115 17.6191 52.7115 17.5603V16.4589C52.7115 15.7918 52.1707 15.2511 51.5036 15.2511H50.0507C49.3143 15.2511 48.7173 15.848 48.7173 16.5844V27.7256C48.7173 28.462 49.3143 29.0589 50.0507 29.0589H51.6655Z" fill="white"/>
<path d="M68.0667 13.6864C68.8031 13.6864 69.4001 13.0894 69.4001 12.353V12.0001C69.4001 11.2637 68.8031 10.6667 68.0667 10.6667H66.4775C65.7312 10.6667 65.1302 11.2793 65.1444 12.0255L65.1512 12.3784C65.165 13.1048 65.7578 13.6864 66.4842 13.6864H68.0667ZM68.1529 29.0589C68.8893 29.0589 69.4863 28.462 69.4863 27.7256V16.5844C69.4863 15.848 68.8893 15.2511 68.1529 15.2511H66.5094C65.773 15.2511 65.176 15.848 65.176 16.5844V27.7256C65.176 28.462 65.773 29.0589 66.5094 29.0589H68.1529Z" fill="white"/>
<path d="M75.591 29.3334C78.2241 29.3334 79.6855 28.2408 80.47 27.2371C80.4922 27.2088 80.5258 27.1922 80.5617 27.1922C80.6254 27.1922 80.6771 27.2439 80.6771 27.3076V28.1256C80.6771 28.641 81.095 29.0589 81.6104 29.0589H83.3379C84.0743 29.0589 84.6712 28.462 84.6712 27.7256V20.8785C84.6712 17.2001 82.4299 14.9766 78.1772 14.9766C74.0968 14.9766 71.4245 17.1452 71.4245 20.4393C71.4245 20.6061 71.5597 20.7413 71.7264 20.7413H75.2316C75.3984 20.7413 75.5336 20.6061 75.5336 20.4393C75.5336 19.0393 76.2232 18.5726 77.976 18.5726C79.6714 18.5726 80.5909 18.8746 80.5909 20.4942C80.5909 20.7463 80.4057 20.9602 80.1562 20.9962L75.6485 21.6471C72.6601 22.0864 71.0509 23.404 71.0509 25.5452C71.0509 28.0432 73.0336 29.3334 75.591 29.3334ZM75.16 25.2158C75.16 24.6393 75.5623 24.3648 76.4531 24.2275L79.065 23.8463C79.8695 23.7289 80.6505 24.4211 80.1815 25.0852C79.5482 25.9822 78.2735 26.204 77.0278 26.204C75.7634 26.204 75.16 25.9569 75.16 25.2158Z" fill="white"/>
<path d="M89.8853 29.0589C90.6217 29.0589 91.2187 28.462 91.2187 27.7256V21.2354C91.2187 19.1491 92.1095 18.5177 94.1784 18.5177C96.3622 18.5177 97.0231 19.204 97.0231 21.1256V27.7256C97.0231 28.4619 97.6201 29.0589 98.3564 29.0589H100C100.736 29.0589 101.333 28.462 101.333 27.7256V20.302C101.333 17.3648 99.7242 14.9766 95.9599 14.9766C93.4631 14.9766 91.9189 16.0738 91.1334 17.6078C91.115 17.6438 91.0782 17.6667 91.0377 17.6667C90.979 17.6667 90.9313 17.6191 90.9313 17.5603V16.4589C90.9313 15.7918 90.3906 15.2511 89.7235 15.2511H88.2705C87.5341 15.2511 86.9372 15.848 86.9372 16.5844V27.7256C86.9372 28.462 87.5341 29.0589 88.2705 29.0589H89.8853Z" fill="white"/>
<path d="M14.3336 6.18648L8.42695 3.26648C5.24029 1.70648 2.62695 3.29315 2.62695 6.78648V26.5731C2.62695 28.0931 3.89362 29.3331 5.44029 29.3331H15.3336C16.067 29.3331 16.667 28.7331 16.667 27.9998V9.87981C16.667 8.47981 15.6136 6.81315 14.3336 6.18648ZM11.9603 18.3331H7.33362C6.78695 18.3331 6.33362 17.8798 6.33362 17.3331C6.33362 16.7865 6.78695 16.3331 7.33362 16.3331H11.9603C12.507 16.3331 12.9603 16.7865 12.9603 17.3331C12.9603 17.8798 12.5203 18.3331 11.9603 18.3331ZM11.9603 12.9998H7.33362C6.78695 12.9998 6.33362 12.5465 6.33362 11.9998C6.33362 11.4531 6.78695 10.9998 7.33362 10.9998H11.9603C12.507 10.9998 12.9603 11.4531 12.9603 11.9998C12.9603 12.5465 12.5203 12.9998 11.9603 12.9998Z" fill="white"/>
<path fill-rule="evenodd" clip-rule="evenodd" d="M22.6817 20.0015C22.6805 19.9656 22.68 19.9296 22.68 19.8934C22.68 19.9297 22.6794 19.9658 22.6782 20.0017C22.6788 20.0012 22.6794 20.0007 22.6801 20.0002C22.6806 20.0007 22.6811 20.0011 22.6817 20.0015ZM29.3309 20.0022C29.3297 19.9837 29.3282 19.9652 29.3266 19.9468C29.3233 19.9068 29.32 19.8668 29.32 19.8268C29.2266 18.5201 28.8266 17.6268 28.2133 17.0134C28.0933 16.8934 27.96 16.7868 27.8266 16.6934C27.8266 16.6934 27.8133 16.6934 27.8133 16.6801C27.2933 16.3468 26.6933 16.1201 26.04 15.9868L23.32 15.3734L22.68 15.2268L20.2933 14.6934C19.4533 14.5068 18.6666 15.1468 18.6666 16.0001V23.1601C18.6667 23.1601 18.6668 23.1601 18.6668 23.1601L18.667 28.0401C18.667 28.7601 19.2404 29.3334 19.9604 29.3334H26.0004C27.8404 29.3334 29.3337 27.8401 29.3337 26.0001L29.3334 20.0002C29.3326 20.0009 29.3317 20.0015 29.3309 20.0022Z" fill="white"/>
</svg>
