<svg width="28" height="28" viewBox="0 0 28 28" fill="none" xmlns="http://www.w3.org/2000/svg">
<g clip-path="url(#clip0_60_1576)">
<path fill-rule="evenodd" clip-rule="evenodd" d="M0.672738 3.14432C0.0159836 4.40862 0.0159836 6.06964 0.0159836 9.39167V18.6083C0.0159836 21.9304 0.0159836 23.5914 0.672738 24.8557C1.22618 25.9211 2.09488 26.7898 3.1603 27.3432C4.42461 28 6.08562 28 9.40765 28H18.6243C21.9463 28 23.6074 28 24.8717 27.3432C25.9371 26.7898 26.8058 25.9211 27.3592 24.8557C28.016 23.5914 28.016 21.9304 28.016 18.6083V9.39167C28.016 6.06964 28.016 4.40862 27.3592 3.14432C26.8058 2.0789 25.9371 1.2102 24.8717 0.656755C23.6074 0 21.9463 0 18.6243 0H9.40765C6.08562 0 4.42461 0 3.1603 0.656755C2.09488 1.2102 1.22618 2.0789 0.672738 3.14432ZM9.80225 3.87971C10.8883 3.83028 11.2353 3.81819 14.0004 3.81819H13.9972C16.7632 3.81819 17.109 3.83028 18.195 3.87971C19.2789 3.92934 20.0192 4.10095 20.6683 4.35274C21.3385 4.61259 21.9049 4.96046 22.4712 5.52683C23.0376 6.09277 23.3854 6.66083 23.6463 7.33049C23.8966 7.97789 24.0685 8.71777 24.1194 9.80171C24.1681 10.8878 24.1809 11.2348 24.1809 14C24.1809 16.7652 24.1681 17.1114 24.1194 18.1975C24.0685 19.281 23.8966 20.0211 23.6463 20.6687C23.3854 21.3381 23.0376 21.9062 22.4712 22.4721C21.9055 23.0385 21.3383 23.3872 20.6689 23.6473C20.0211 23.8991 19.2804 24.0707 18.1965 24.1203C17.1105 24.1697 16.7645 24.1818 13.9991 24.1818C11.2342 24.1818 10.8874 24.1697 9.8014 24.1203C8.7177 24.0707 7.97764 23.8991 7.32984 23.6473C6.66061 23.3872 6.09257 23.0385 5.52686 22.4721C4.96073 21.9062 4.61286 21.3381 4.35259 20.6685C4.10103 20.0211 3.92942 19.2812 3.87958 18.1973C3.83037 17.1112 3.81806 16.7652 3.81806 14C3.81806 11.2348 3.83079 10.8876 3.87937 9.80149C3.92815 8.71798 4.09996 7.97789 4.35238 7.33028C4.61328 6.66083 4.96115 6.09277 5.5275 5.52683C6.09342 4.96068 6.66146 4.6128 7.33111 4.35274C7.97848 4.10095 8.71834 3.92934 9.80225 3.87971ZM13.6611 5.65294C13.4552 5.65285 13.2644 5.65276 13.0871 5.65304V5.65049C11.1895 5.65262 10.8255 5.66534 9.88624 5.70777C8.89355 5.75337 8.35456 5.91883 7.99567 6.05883C7.52053 6.2438 7.18114 6.4644 6.82479 6.82077C6.46844 7.17713 6.24742 7.51652 6.06288 7.99168C5.92352 8.35058 5.75764 8.88937 5.71225 9.8821C5.66346 10.9554 5.65371 11.2762 5.65371 13.9951C5.65371 16.7141 5.66346 17.0365 5.71225 18.1099C5.75743 19.1026 5.92352 19.6414 6.06288 19.9999C6.24784 20.4752 6.46844 20.8138 6.82479 21.1701C7.18114 21.5265 7.52053 21.7471 7.99567 21.9316C8.35477 22.071 8.89355 22.2369 9.88624 22.2827C10.9595 22.3315 11.2817 22.3421 14.0004 22.3421C16.7189 22.3421 17.0413 22.3315 18.1146 22.2827C19.1073 22.2373 19.6465 22.0719 20.005 21.9319C20.4803 21.7473 20.8186 21.5267 21.175 21.1703C21.5313 20.8142 21.7524 20.4759 21.9369 20.0007C22.0763 19.6422 22.2421 19.1034 22.2875 18.1107C22.3363 17.0374 22.3469 16.7149 22.3469 13.9977C22.3469 11.2804 22.3363 10.958 22.2875 9.88465C22.2424 8.89192 22.0763 8.35313 21.9369 7.99465C21.7519 7.51949 21.5313 7.1801 21.175 6.82374C20.8189 6.46737 20.4801 6.24677 20.005 6.06222C19.6461 5.92286 19.1073 5.75698 18.1146 5.71159C17.0411 5.6628 16.7189 5.65304 14.0004 5.65304C13.8829 5.65304 13.7699 5.65299 13.6611 5.65294ZM18.2134 8.56504C18.2134 7.89028 18.7607 7.34365 19.4352 7.34365V7.34322C20.1098 7.34322 20.657 7.89049 20.657 8.56504C20.657 9.23958 20.1098 9.78686 19.4352 9.78686C18.7607 9.78686 18.2134 9.23958 18.2134 8.56504ZM8.77179 14C8.77179 11.1125 11.1128 8.77133 14.0002 8.77122C16.8877 8.77122 19.2282 11.1124 19.2282 14C19.2282 16.8876 16.8879 19.2277 14.0004 19.2277C11.1129 19.2277 8.77179 16.8876 8.77179 14ZM17.3943 14C17.3943 12.1255 15.8747 10.6061 14.0004 10.6061C12.126 10.6061 10.6066 12.1255 10.6066 14C10.6066 15.8743 12.126 17.3939 14.0004 17.3939C15.8747 17.3939 17.3943 15.8743 17.3943 14Z" fill="url(#paint0_radial_60_1576)"/>
<path fill-rule="evenodd" clip-rule="evenodd" d="M0.672738 3.14432C0.0159836 4.40862 0.0159836 6.06964 0.0159836 9.39167V18.6083C0.0159836 21.9304 0.0159836 23.5914 0.672738 24.8557C1.22618 25.9211 2.09488 26.7898 3.1603 27.3432C4.42461 28 6.08562 28 9.40765 28H18.6243C21.9463 28 23.6074 28 24.8717 27.3432C25.9371 26.7898 26.8058 25.9211 27.3592 24.8557C28.016 23.5914 28.016 21.9304 28.016 18.6083V9.39167C28.016 6.06964 28.016 4.40862 27.3592 3.14432C26.8058 2.0789 25.9371 1.2102 24.8717 0.656755C23.6074 0 21.9463 0 18.6243 0H9.40765C6.08562 0 4.42461 0 3.1603 0.656755C2.09488 1.2102 1.22618 2.0789 0.672738 3.14432ZM9.80225 3.87971C10.8883 3.83028 11.2353 3.81819 14.0004 3.81819H13.9972C16.7632 3.81819 17.109 3.83028 18.195 3.87971C19.2789 3.92934 20.0192 4.10095 20.6683 4.35274C21.3385 4.61259 21.9049 4.96046 22.4712 5.52683C23.0376 6.09277 23.3854 6.66083 23.6463 7.33049C23.8966 7.97789 24.0685 8.71777 24.1194 9.80171C24.1681 10.8878 24.1809 11.2348 24.1809 14C24.1809 16.7652 24.1681 17.1114 24.1194 18.1975C24.0685 19.281 23.8966 20.0211 23.6463 20.6687C23.3854 21.3381 23.0376 21.9062 22.4712 22.4721C21.9055 23.0385 21.3383 23.3872 20.6689 23.6473C20.0211 23.8991 19.2804 24.0707 18.1965 24.1203C17.1105 24.1697 16.7645 24.1818 13.9991 24.1818C11.2342 24.1818 10.8874 24.1697 9.8014 24.1203C8.7177 24.0707 7.97764 23.8991 7.32984 23.6473C6.66061 23.3872 6.09257 23.0385 5.52686 22.4721C4.96073 21.9062 4.61286 21.3381 4.35259 20.6685C4.10103 20.0211 3.92942 19.2812 3.87958 18.1973C3.83037 17.1112 3.81806 16.7652 3.81806 14C3.81806 11.2348 3.83079 10.8876 3.87937 9.80149C3.92815 8.71798 4.09996 7.97789 4.35238 7.33028C4.61328 6.66083 4.96115 6.09277 5.5275 5.52683C6.09342 4.96068 6.66146 4.6128 7.33111 4.35274C7.97848 4.10095 8.71834 3.92934 9.80225 3.87971ZM13.6611 5.65294C13.4552 5.65285 13.2644 5.65276 13.0871 5.65304V5.65049C11.1895 5.65262 10.8255 5.66534 9.88624 5.70777C8.89355 5.75337 8.35456 5.91883 7.99567 6.05883C7.52053 6.2438 7.18114 6.4644 6.82479 6.82077C6.46844 7.17713 6.24742 7.51652 6.06288 7.99168C5.92352 8.35058 5.75764 8.88937 5.71225 9.8821C5.66346 10.9554 5.65371 11.2762 5.65371 13.9951C5.65371 16.7141 5.66346 17.0365 5.71225 18.1099C5.75743 19.1026 5.92352 19.6414 6.06288 19.9999C6.24784 20.4752 6.46844 20.8138 6.82479 21.1701C7.18114 21.5265 7.52053 21.7471 7.99567 21.9316C8.35477 22.071 8.89355 22.2369 9.88624 22.2827C10.9595 22.3315 11.2817 22.3421 14.0004 22.3421C16.7189 22.3421 17.0413 22.3315 18.1146 22.2827C19.1073 22.2373 19.6465 22.0719 20.005 21.9319C20.4803 21.7473 20.8186 21.5267 21.175 21.1703C21.5313 20.8142 21.7524 20.4759 21.9369 20.0007C22.0763 19.6422 22.2421 19.1034 22.2875 18.1107C22.3363 17.0374 22.3469 16.7149 22.3469 13.9977C22.3469 11.2804 22.3363 10.958 22.2875 9.88465C22.2424 8.89192 22.0763 8.35313 21.9369 7.99465C21.7519 7.51949 21.5313 7.1801 21.175 6.82374C20.8189 6.46737 20.4801 6.24677 20.005 6.06222C19.6461 5.92286 19.1073 5.75698 18.1146 5.71159C17.0411 5.6628 16.7189 5.65304 14.0004 5.65304C13.8829 5.65304 13.7699 5.65299 13.6611 5.65294ZM18.2134 8.56504C18.2134 7.89028 18.7607 7.34365 19.4352 7.34365V7.34322C20.1098 7.34322 20.657 7.89049 20.657 8.56504C20.657 9.23958 20.1098 9.78686 19.4352 9.78686C18.7607 9.78686 18.2134 9.23958 18.2134 8.56504ZM8.77179 14C8.77179 11.1125 11.1128 8.77133 14.0002 8.77122C16.8877 8.77122 19.2282 11.1124 19.2282 14C19.2282 16.8876 16.8879 19.2277 14.0004 19.2277C11.1129 19.2277 8.77179 16.8876 8.77179 14ZM17.3943 14C17.3943 12.1255 15.8747 10.6061 14.0004 10.6061C12.126 10.6061 10.6066 12.1255 10.6066 14C10.6066 15.8743 12.126 17.3939 14.0004 17.3939C15.8747 17.3939 17.3943 15.8743 17.3943 14Z" fill="#BBBBBB"/>
</g>
<defs>
<radialGradient id="paint0_radial_60_1576" cx="0" cy="0" r="1" gradientUnits="userSpaceOnUse" gradientTransform="translate(7.45352 30.1566) rotate(-90) scale(27.7501 25.8097)">
<stop stop-color="#FFDD55"/>
<stop offset="0.1" stop-color="#FFDD55"/>
<stop offset="0.5" stop-color="#FF543E"/>
<stop offset="1" stop-color="#C837AB"/>
</radialGradient>
<clipPath id="clip0_60_1576">
<rect width="28" height="28" fill="white"/>
</clipPath>
</defs>
</svg>
