<svg width="32" height="32" viewBox="0 0 32 32" fill="none" xmlns="http://www.w3.org/2000/svg">
<path d="M11.1866 24.6533V11.1067C11.1866 10.5733 11.3466 10.0533 11.64 9.61334L15.28 4.20001C15.8533 3.33334 17.28 2.72001 18.4933 3.17334C19.8 3.61334 20.6666 5.08001 20.3866 6.38667L19.6933 10.7467C19.64 11.1467 19.7466 11.5067 19.9733 11.7867C20.2 12.04 20.5333 12.2 20.8933 12.2H26.3733C27.4266 12.2 28.3333 12.6267 28.8666 13.3733C29.3733 14.0933 29.4666 15.0267 29.1333 15.9733L25.8533 25.96C25.44 27.6133 23.64 28.96 21.8533 28.96H16.6533C15.76 28.96 14.5066 28.6533 13.9333 28.08L12.2266 26.76C11.5733 26.2667 11.1866 25.48 11.1866 24.6533Z" fill="#292D32"/>
<path d="M6.94669 8.50671H5.57335C3.50669 8.50671 2.66669 9.30671 2.66669 11.28V24.6934C2.66669 26.6667 3.50669 27.4667 5.57335 27.4667H6.94669C9.01335 27.4667 9.85335 26.6667 9.85335 24.6934V11.28C9.85335 9.30671 9.01335 8.50671 6.94669 8.50671Z" fill="#292D32"/>
</svg>
