<svg width="40" height="40" viewBox="0 0 40 40" fill="none" xmlns="http://www.w3.org/2000/svg">
<path d="M30 17.9166C29.3167 17.9166 28.75 17.35 28.75 16.6666V13.3333C28.75 8.08331 27.2667 4.58331 20 4.58331C12.7333 4.58331 11.25 8.08331 11.25 13.3333V16.6666C11.25 17.35 10.6833 17.9166 10 17.9166C9.31667 17.9166 8.75 17.35 8.75 16.6666V13.3333C8.75 8.49998 9.91667 2.08331 20 2.08331C30.0833 2.08331 31.25 8.49998 31.25 13.3333V16.6666C31.25 17.35 30.6833 17.9166 30 17.9166Z" fill="#292D32"/>
<path d="M20 32.0833C17.0167 32.0833 14.5833 29.65 14.5833 26.6667C14.5833 23.6833 17.0167 21.25 20 21.25C22.9833 21.25 25.4167 23.6833 25.4167 26.6667C25.4167 29.65 22.9833 32.0833 20 32.0833ZM20 23.75C18.4 23.75 17.0833 25.0667 17.0833 26.6667C17.0833 28.2667 18.4 29.5833 20 29.5833C21.6 29.5833 22.9167 28.2667 22.9167 26.6667C22.9167 25.0667 21.6 23.75 20 23.75Z" fill="#292D32"/>
<path d="M28.3333 37.9167H11.6667C4.31668 37.9167 2.08334 35.6834 2.08334 28.3334V25C2.08334 17.65 4.31668 15.4167 11.6667 15.4167H28.3333C35.6833 15.4167 37.9167 17.65 37.9167 25V28.3334C37.9167 35.6834 35.6833 37.9167 28.3333 37.9167ZM11.6667 17.9167C5.70001 17.9167 4.58334 19.05 4.58334 25V28.3334C4.58334 34.2834 5.70001 35.4167 11.6667 35.4167H28.3333C34.3 35.4167 35.4167 34.2834 35.4167 28.3334V25C35.4167 19.05 34.3 17.9167 28.3333 17.9167H11.6667Z" fill="#292D32"/>
</svg>
