<svg width="36" height="37" viewBox="0 0 36 37" fill="none" xmlns="http://www.w3.org/2000/svg">
<path d="M18 32.375H10.5C5.025 32.375 1.875 29.225 1.875 23.75V13.25C1.875 7.775 5.025 4.625 10.5 4.625H25.5C30.975 4.625 34.125 7.775 34.125 13.25V17.75C34.125 18.365 33.615 18.875 33 18.875C32.385 18.875 31.875 18.365 31.875 17.75V13.25C31.875 8.96 29.79 6.875 25.5 6.875H10.5C6.21 6.875 4.125 8.96 4.125 13.25V23.75C4.125 28.04 6.21 30.125 10.5 30.125H18C18.615 30.125 19.125 30.635 19.125 31.25C19.125 31.865 18.615 32.375 18 32.375Z" fill="#292D32"/>
<path d="M17.9997 19.8049C16.7397 19.8049 15.4647 19.4149 14.4897 18.6199L9.79467 14.8699C9.31467 14.4799 9.22467 13.775 9.61467 13.295C10.0047 12.815 10.7097 12.74 11.1897 13.115L15.8847 16.865C17.0247 17.78 18.9597 17.78 20.0997 16.865L24.7947 13.115C25.2747 12.725 25.9796 12.8 26.3696 13.295C26.7596 13.775 26.6847 14.4949 26.1897 14.8699L21.4946 18.6199C20.5346 19.4149 19.2597 19.8049 17.9997 19.8049Z" fill="#292D32"/>
<path d="M23.7301 33.1699C23.1601 33.1699 22.6201 32.9599 22.2301 32.5699C21.7651 32.1049 21.5551 31.4299 21.6601 30.7249L21.9451 28.6999C22.0201 28.1749 22.3351 27.5449 22.7101 27.1699L28.0201 21.8599C28.7401 21.1399 29.4451 20.7649 30.2101 20.6899C31.1401 20.5999 32.0701 20.9899 32.9401 21.8599C33.8101 22.7299 34.2001 23.6449 34.1101 24.5899C34.0351 25.3399 33.6451 26.0599 32.9401 26.7799L27.6301 32.0899C27.2551 32.4649 26.6251 32.7799 26.1001 32.8549L24.0751 33.1399C23.9551 33.1549 23.8501 33.1699 23.7301 33.1699ZM30.4651 22.9249C30.4501 22.9249 30.4351 22.9249 30.4201 22.9249C30.2101 22.9399 29.9251 23.1349 29.6101 23.4499L24.3001 28.7599C24.2551 28.8049 24.1801 28.9549 24.1801 29.0149L23.9101 30.8899L25.7851 30.6199C25.8451 30.6049 25.9951 30.5299 26.0401 30.4849L31.3501 25.1749C31.6651 24.8449 31.8601 24.5749 31.8751 24.3649C31.9051 24.0649 31.6051 23.7049 31.3501 23.4499C31.1101 23.2099 30.7651 22.9249 30.4651 22.9249Z" fill="#292D32"/>
<path d="M31.3801 27.8749C31.2751 27.8749 31.1701 27.8599 31.0801 27.8299C29.1001 27.2749 27.5251 25.6999 26.9701 23.7199C26.8051 23.1199 27.1501 22.5049 27.7501 22.3249C28.3501 22.1599 28.9651 22.5049 29.1301 23.1049C29.4751 24.3349 30.4501 25.3099 31.6801 25.6549C32.2801 25.8199 32.6251 26.4499 32.4601 27.0499C32.3251 27.5449 31.8751 27.8749 31.3801 27.8749Z" fill="#292D32"/>
</svg>
