<svg width="40" height="40" viewBox="0 0 40 40" fill="none" xmlns="http://www.w3.org/2000/svg">
<path d="M8.33335 39.5833C5.56669 39.5833 2.96668 38.1167 1.56668 35.7333C0.816685 34.5333 0.416687 33.1167 0.416687 31.6667C0.416687 27.3 3.96669 23.75 8.33335 23.75C12.7 23.75 16.25 27.3 16.25 31.6667C16.25 33.1167 15.85 34.5334 15.1 35.75C13.7 38.1167 11.1 39.5833 8.33335 39.5833ZM8.33335 26.25C5.35002 26.25 2.91669 28.6833 2.91669 31.6667C2.91669 32.65 3.18336 33.6166 3.70002 34.45C4.68336 36.1166 6.41669 37.0833 8.33335 37.0833C10.25 37.0833 11.9834 36.1 12.9667 34.4667C13.4834 33.6167 13.75 32.6667 13.75 31.6667C13.75 28.6833 11.3167 26.25 8.33335 26.25Z" fill="#292D32"/>
<path d="M7.38314 34.5668C7.06647 34.5668 6.74981 34.4501 6.49981 34.2001L4.8498 32.5502C4.36647 32.0668 4.36647 31.2667 4.8498 30.7834C5.33314 30.3001 6.13314 30.3001 6.61647 30.7834L7.41647 31.5835L10.0831 29.1167C10.5831 28.6501 11.3831 28.6835 11.8498 29.1835C12.3165 29.6835 12.2831 30.4835 11.7831 30.9501L8.23314 34.2334C7.98314 34.4501 7.68314 34.5668 7.38314 34.5668Z" fill="#292D32"/>
<path d="M10.3168 13.0166C9.91676 13.0166 9.5501 12.8333 9.3001 12.4999C9.01677 12.1166 8.98343 11.6165 9.2001 11.1999C9.48343 10.6332 9.88343 10.0833 10.4001 9.58325L15.8168 4.1499C18.5834 1.3999 23.0834 1.3999 25.8501 4.1499L28.7668 7.11662C30.0001 8.33328 30.7501 9.96662 30.8334 11.7C30.8501 12.0833 30.7001 12.4499 30.4168 12.6999C30.1334 12.9499 29.7501 13.0666 29.3834 12.9999C29.0501 12.9499 28.7001 12.9333 28.3334 12.9333H11.6668C11.2668 12.9333 10.8834 12.9666 10.5001 13.0166C10.4501 13.0166 10.3834 13.0166 10.3168 13.0166ZM13.1001 10.4166H28.0334C27.8168 9.84992 27.4668 9.33326 27.0001 8.8666L24.0668 5.89988C22.2834 4.13322 19.3668 4.13322 17.5668 5.89988L13.1001 10.4166Z" fill="#292D32"/>
<path d="M28.3333 37.9167H12.7167C12.1833 37.9167 11.7167 37.5834 11.5333 37.1C11.35 36.6 11.5 36.05 11.9 35.7167C12.3 35.3833 12.6667 34.95 12.9333 34.4834C13.4667 33.6334 13.7333 32.6667 13.7333 31.6834C13.7333 28.7 11.3 26.2667 8.31666 26.2667C6.76666 26.2667 5.28332 26.9333 4.24999 28.1167C3.89999 28.5 3.34999 28.65 2.86666 28.4667C2.38332 28.2834 2.04999 27.8167 2.04999 27.3V20C2.04999 14.8667 5.21666 11.15 10.1333 10.5334C10.5833 10.4667 11.1 10.4167 11.6333 10.4167H28.3C28.7 10.4167 29.2167 10.4333 29.75 10.5167C34.6667 11.0833 37.8833 14.8167 37.8833 20V28.3334C37.9167 34.0667 34.0667 37.9167 28.3333 37.9167ZM15.3 35.4167H28.3333C32.6333 35.4167 35.4167 32.6334 35.4167 28.3334V20C35.4167 16.1 33.1333 13.4167 29.4333 12.9833C29.0333 12.9167 28.6833 12.9167 28.3333 12.9167H11.6667C11.2667 12.9167 10.8833 12.95 10.5 13C6.83332 13.4667 4.58332 16.1334 4.58332 20V24.7C5.71666 24.0834 7.01666 23.75 8.33332 23.75C12.7 23.75 16.25 27.3 16.25 31.6667C16.25 32.9834 15.9167 34.2834 15.3 35.4167Z" fill="#292D32"/>
<path d="M36.6666 28.75H31.6666C29.1333 28.75 27.0833 26.7 27.0833 24.1666C27.0833 21.6333 29.1333 19.5833 31.6666 19.5833H36.6666C37.35 19.5833 37.9166 20.15 37.9166 20.8333C37.9166 21.5166 37.35 22.0833 36.6666 22.0833H31.6666C30.5166 22.0833 29.5833 23.0166 29.5833 24.1666C29.5833 25.3166 30.5166 26.25 31.6666 26.25H36.6666C37.35 26.25 37.9166 26.8166 37.9166 27.5C37.9166 28.1833 37.35 28.75 36.6666 28.75Z" fill="#292D32"/>
</svg>
