<svg width="53" height="53" viewBox="0 0 53 53" fill="none" xmlns="http://www.w3.org/2000/svg">
<path d="M23.74 10.2463L13.9571 5.41005C8.67916 2.8263 4.35083 5.45422 4.35083 11.24V44.0117C4.35083 46.5292 6.44875 48.583 9.01041 48.583H25.3962C26.6108 48.583 27.6046 47.5892 27.6046 46.3746V16.3634C27.6046 14.0446 25.86 11.2842 23.74 10.2463ZM19.8092 30.3642H12.1462C11.2408 30.3642 10.49 29.6134 10.49 28.708C10.49 27.8025 11.2408 27.0517 12.1462 27.0517H19.8092C20.7146 27.0517 21.4654 27.8025 21.4654 28.708C21.4654 29.6134 20.7367 30.3642 19.8092 30.3642ZM19.8092 21.5309H12.1462C11.2408 21.5309 10.49 20.78 10.49 19.8746C10.49 18.9692 11.2408 18.2184 12.1462 18.2184H19.8092C20.7146 18.2184 21.4654 18.9692 21.4654 19.8746C21.4654 20.78 20.7367 21.5309 19.8092 21.5309Z" fill="#006BE8"/>
<path fill-rule="evenodd" clip-rule="evenodd" d="M37.5666 33.1274C37.5647 33.068 37.5637 33.0083 37.5637 32.9484C37.5637 33.0084 37.5627 33.0682 37.5608 33.1277C37.5618 33.1269 37.5628 33.1261 37.5639 33.1252C37.5648 33.126 37.5657 33.1267 37.5666 33.1274ZM48.5794 33.1285C48.5773 33.0979 48.5748 33.0673 48.5723 33.0367C48.5667 32.9705 48.5612 32.9042 48.5612 32.838C48.4066 30.6738 47.7441 29.1942 46.7283 28.1784C46.5295 27.9797 46.3087 27.803 46.0879 27.6484C46.0879 27.6484 46.0658 27.6484 46.0658 27.6263C45.2045 27.0742 44.2108 26.6988 43.1287 26.478L38.6237 25.4622L37.5637 25.2192L33.6108 24.3359C32.2195 24.0267 30.9166 25.0867 30.9166 26.5001V38.3588C30.9167 38.3588 30.9168 38.3589 30.9169 38.3589L30.9173 46.4413C30.9173 47.6338 31.8669 48.5834 33.0594 48.5834H43.0631C46.1106 48.5834 48.584 46.1101 48.584 43.0626L48.5835 33.1252C48.5821 33.1263 48.5807 33.1274 48.5794 33.1285Z" fill="#FF8A00"/>
</svg>
